<svg width="50" height="50" viewBox="0 0 50 50" fill="none" xmlns="http://www.w3.org/2000/svg">
<path fill-rule="evenodd" clip-rule="evenodd" d="M50 25C50 38.8071 38.8071 50 25 50C11.1929 50 0 38.8071 0 25C0 11.1929 11.1929 0 25 0C38.8071 0 50 11.1929 50 25ZM10.7071 19.7071C11.0976 19.3166 11.7308 19.3166 12.1213 19.7071L25.4853 33.0711L38.8492 19.7072C39.2398 19.3166 39.8729 19.3166 40.2635 19.7072C40.654 20.0977 40.654 20.7308 40.2635 21.1214L26.1302 35.2547C25.8178 35.567 25.3348 35.5858 25.0014 35.3363C24.9055 35.2916 24.8153 35.2295 24.7352 35.1494L24.0847 34.4989C24.054 34.512 24.0253 34.5311 24 34.5564L24.0711 34.4853L10.7071 21.1213C10.3166 20.7308 10.3166 20.0976 10.7071 19.7071Z" fill="white"/>
</svg>
