<svg width="40" height="40" viewBox="0 0 40 40" fill="none" xmlns="http://www.w3.org/2000/svg">
<g clip-path="url(#clip0_23_109)">
<path d="M1.08993 5.46009C0 7.59921 0 10.3995 0 16V24C0 29.6005 0 32.4008 1.08993 34.5399C2.04867 36.4215 3.57847 37.9513 5.46009 38.9101C7.59921 40 10.3995 40 16 40H19.8287V24.8369H14.1565V18.4507H19.8287V13.5834C19.8287 8.04641 23.1639 4.98795 28.2669 4.98795C30.711 4.98795 33.2676 5.41945 33.2676 5.41945V10.8563H30.4506C27.6754 10.8563 26.81 12.5593 26.81 14.3064V18.4507H33.0058L32.0153 24.8369H26.81V39.9933C30.6046 39.9634 32.7928 39.8003 34.5399 38.9101C36.4215 37.9513 37.9513 36.4215 38.9101 34.5399C40 32.4008 40 29.6005 40 24V16C40 10.3995 40 7.59921 38.9101 5.46009C37.9513 3.57847 36.4215 2.04867 34.5399 1.08993C32.4008 0 29.6005 0 24 0H16C10.3995 0 7.59921 0 5.46009 1.08993C3.57847 2.04867 2.04867 3.57847 1.08993 5.46009Z" fill="white"/>
</g>
<defs>
<clipPath id="clip0_23_109">
<rect width="40" height="40" fill="white"/>
</clipPath>
</defs>
</svg>
