<svg width="40" height="40" viewBox="0 0 40 40" fill="none" xmlns="http://www.w3.org/2000/svg">
<g clip-path="url(#clip0_23_110)">
<path fill-rule="evenodd" clip-rule="evenodd" d="M0 16C0 10.3995 0 7.59921 1.08993 5.46009C2.04867 3.57847 3.57847 2.04867 5.46009 1.08993C7.59921 0 10.3995 0 16 0H24C29.6005 0 32.4008 0 34.5399 1.08993C36.4215 2.04867 37.9513 3.57847 38.9101 5.46009C40 7.59921 40 10.3995 40 16V24C40 29.6005 40 32.4008 38.9101 34.5399C37.9513 36.4215 36.4215 37.9513 34.5399 38.9101C32.4008 40 29.6005 40 24 40H16C10.3995 40 7.59921 40 5.46009 38.9101C3.57847 37.9513 2.04867 36.4215 1.08993 34.5399C0 32.4008 0 29.6005 0 24V16ZM5 20C5 11.7162 11.7125 5 20 5C28.2837 5 35 11.7162 35 20C35 26.6187 30.7062 32.2438 24.705 34.2112C23.9362 34.3612 23.6737 33.8925 23.6737 33.4987C23.6737 33.3378 23.6758 33.0543 23.6785 32.6744C23.6841 31.9036 23.6925 30.736 23.6925 29.3912C23.6925 27.9862 23.205 27.0662 22.68 26.6162C26.0175 26.2475 29.5237 24.9788 29.5237 19.2162C29.5237 17.5787 28.9425 16.2412 27.9862 15.1912C28.1362 14.8125 28.6425 13.2875 27.8362 11.2212C27.8362 11.2212 26.58 10.8187 23.73 12.7587C22.53 12.425 21.255 12.26 19.98 12.2525C18.705 12.26 17.43 12.425 16.23 12.7587C13.3612 10.8187 12.105 11.2212 12.105 11.2212C11.2987 13.2875 11.805 14.8125 11.9737 15.1912C11.0112 16.2412 10.43 17.5787 10.43 19.2162C10.43 24.9638 13.9313 26.2537 17.2625 26.6287C16.8337 27.0037 16.4475 27.665 16.3125 28.635C15.455 29.0187 13.2812 29.6812 11.9437 27.3875C11.9437 27.3875 11.1525 25.9475 9.64625 25.8425C9.64625 25.8425 8.1825 25.8237 9.54125 26.7537C9.54125 26.7537 10.5275 27.2162 11.21 28.9475C11.21 28.9475 12.09 31.865 16.2625 30.96C16.266 31.6541 16.2714 32.2538 16.2755 32.7109C16.2788 33.077 16.2812 33.3516 16.2812 33.51C16.2812 33.9087 16.0063 34.3725 15.2562 34.2312C9.2975 32.25 5 26.6287 5 20Z" fill="white"/>
</g>
<defs>
<clipPath id="clip0_23_110">
<rect width="40" height="40" fill="white"/>
</clipPath>
</defs>
</svg>
