<svg width="40" height="40" viewBox="0 0 40 40" fill="none" xmlns="http://www.w3.org/2000/svg">
<g clip-path="url(#clip0_23_112)">
<path fill-rule="evenodd" clip-rule="evenodd" d="M1.08993 5.46009C0 7.59921 0 10.3995 0 16V24C0 29.6005 0 32.4008 1.08993 34.5399C2.04867 36.4215 3.57847 37.9513 5.46009 38.9101C7.59921 40 10.3995 40 16 40H24C29.6005 40 32.4008 40 34.5399 38.9101C36.4215 37.9513 37.9513 36.4215 38.9101 34.5399C40 32.4008 40 29.6005 40 24V16C40 10.3995 40 7.59921 38.9101 5.46009C37.9513 3.57847 36.4215 2.04867 34.5399 1.08993C32.4008 0 29.6005 0 24 0H16C10.3995 0 7.59921 0 5.46009 1.08993C3.57847 2.04867 2.04867 3.57847 1.08993 5.46009ZM20.2682 11.9439C22.2075 11.9145 24.0817 12.6298 25.4861 13.9427L29.3695 10.1361C26.9105 7.87274 23.6469 6.62837 20.2682 6.66757C15.1253 6.66757 10.4225 9.50924 8.11347 14.0164C6.18449 17.7835 6.1844 22.2224 8.1132 25.9896C10.4223 30.4919 15.1253 33.3333 20.2683 33.3333C23.9368 33.3333 27.0305 32.1527 29.2846 30.1146L29.2821 30.1127C31.8547 27.7906 33.3333 24.362 33.3333 20.3067C33.3333 19.4004 33.2583 18.4891 33.0984 17.5975H20.2686V22.7317H27.6156C27.3107 24.3876 26.3311 25.8525 24.8967 26.7833V26.7864C23.6778 27.5977 22.1052 28.057 20.2732 28.057C16.7247 28.057 13.7159 25.7104 12.6364 22.5553L12.6317 22.5553C12.062 20.8994 12.062 19.1052 12.6317 17.4494C13.7066 14.29 16.7201 11.9439 20.2682 11.9439Z" fill="white"/>
</g>
<defs>
<clipPath id="clip0_23_112">
<rect width="40" height="40" fill="white"/>
</clipPath>
</defs>
</svg>
