<svg width="40" height="40" viewBox="0 0 40 40" fill="none" xmlns="http://www.w3.org/2000/svg">
<g clip-path="url(#clip0_23_111)">
<path fill-rule="evenodd" clip-rule="evenodd" d="M1.08993 5.46009C0 7.59921 0 10.3995 0 16V24C0 29.6005 0 32.4008 1.08993 34.5399C2.04867 36.4215 3.57847 37.9513 5.46009 38.9101C7.59921 40 10.3995 40 16 40H24C29.6005 40 32.4008 40 34.5399 38.9101C36.4215 37.9513 37.9513 36.4215 38.9101 34.5399C40 32.4008 40 29.6005 40 24V16C40 10.3995 40 7.59921 38.9101 5.46009C37.9513 3.57847 36.4215 2.04867 34.5399 1.08993C32.4008 0 29.6005 0 24 0H16C10.3995 0 7.59921 0 5.46009 1.08993C3.57847 2.04867 2.04867 3.57847 1.08993 5.46009ZM7.10714 33.3333H12.6357V15.5294H7.10714V33.3333ZM6.66667 9.86852C6.66667 11.6364 8.1006 13.1007 9.86845 13.1007C11.6357 13.1007 13.0702 11.6364 13.0702 9.86852C13.0702 9.01934 12.7329 8.20493 12.1325 7.60447C11.532 7.004 10.7176 6.66667 9.86845 6.66667C9.01929 6.66667 8.2049 7.004 7.60445 7.60447C7.004 8.20493 6.66667 9.01934 6.66667 9.86852ZM27.8107 33.3333H33.3333V23.5534C33.3333 18.7675 32.3048 15.0829 26.7095 15.0829C24.0196 15.0829 22.2167 16.5591 21.4786 17.958H21.4012V15.5294H16.0988V33.3333H21.6214V24.5177C21.6214 22.1962 22.0619 19.9521 24.9363 19.9521C27.769 19.9521 27.8107 22.601 27.8107 24.6665V33.3333Z" fill="white"/>
</g>
<defs>
<clipPath id="clip0_23_111">
<rect width="40" height="40" fill="white"/>
</clipPath>
</defs>
</svg>
