<svg width="58" height="58" viewBox="0 0 58 58" fill="none" xmlns="http://www.w3.org/2000/svg">
<g filter="url(#filter0_d_22_9)">
<path fill-rule="evenodd" clip-rule="evenodd" d="M54 25C54 38.8071 42.8071 50 29 50C15.1929 50 4 38.8071 4 25C4 11.1929 15.1929 0 29 0C42.8071 0 54 11.1929 54 25ZM14.7071 19.7071C15.0976 19.3166 15.7308 19.3166 16.1213 19.7071L29.4853 33.0711L42.8492 19.7072C43.2398 19.3166 43.8729 19.3166 44.2635 19.7072C44.654 20.0977 44.654 20.7308 44.2635 21.1214L30.1302 35.2547C29.8178 35.567 29.3348 35.5858 29.0014 35.3363C28.9055 35.2916 28.8153 35.2295 28.7352 35.1494L28.0847 34.4989C28.054 34.512 28.0253 34.5311 28 34.5564L28.0711 34.4853L14.7071 21.1213C14.3166 20.7308 14.3166 20.0976 14.7071 19.7071Z" fill="white"/>
</g>
<defs>
<filter id="filter0_d_22_9" x="0" y="0" width="58" height="58" filterUnits="userSpaceOnUse" color-interpolation-filters="sRGB">
<feFlood flood-opacity="0" result="BackgroundImageFix"/>
<feColorMatrix in="SourceAlpha" type="matrix" values="0 0 0 0 0 0 0 0 0 0 0 0 0 0 0 0 0 0 127 0" result="hardAlpha"/>
<feOffset dy="4"/>
<feGaussianBlur stdDeviation="2"/>
<feComposite in2="hardAlpha" operator="out"/>
<feColorMatrix type="matrix" values="0 0 0 0 0 0 0 0 0 0 0 0 0 0 0 0 0 0 0.25 0"/>
<feBlend mode="normal" in2="BackgroundImageFix" result="effect1_dropShadow_22_9"/>
<feBlend mode="normal" in="SourceGraphic" in2="effect1_dropShadow_22_9" result="shape"/>
</filter>
</defs>
</svg>
