<svg width="48" height="48" viewBox="0 0 48 48" fill="none" xmlns="http://www.w3.org/2000/svg">
<g clip-path="url(#clip0_22_17)" filter="url(#filter0_d_22_17)">
<path fill-rule="evenodd" clip-rule="evenodd" d="M4 16C4 10.3995 4 7.59921 5.08993 5.46009C6.04867 3.57847 7.57847 2.04867 9.46009 1.08993C11.5992 0 14.3995 0 20 0H28C33.6005 0 36.4008 0 38.5399 1.08993C40.4215 2.04867 41.9513 3.57847 42.9101 5.46009C44 7.59921 44 10.3995 44 16V24C44 29.6005 44 32.4008 42.9101 34.5399C41.9513 36.4215 40.4215 37.9513 38.5399 38.9101C36.4008 40 33.6005 40 28 40H20C14.3995 40 11.5992 40 9.46009 38.9101C7.57847 37.9513 6.04867 36.4215 5.08993 34.5399C4 32.4008 4 29.6005 4 24V16ZM9 20C9 11.7162 15.7125 5 24 5C32.2837 5 39 11.7162 39 20C39 26.6187 34.7062 32.2438 28.705 34.2112C27.9362 34.3612 27.6737 33.8925 27.6737 33.4987C27.6737 33.3378 27.6758 33.0543 27.6785 32.6744C27.6841 31.9036 27.6925 30.736 27.6925 29.3912C27.6925 27.9862 27.205 27.0662 26.68 26.6162C30.0175 26.2475 33.5237 24.9788 33.5237 19.2162C33.5237 17.5787 32.9425 16.2412 31.9862 15.1912C32.1362 14.8125 32.6425 13.2875 31.8362 11.2212C31.8362 11.2212 30.58 10.8187 27.73 12.7587C26.53 12.425 25.255 12.26 23.98 12.2525C22.705 12.26 21.43 12.425 20.23 12.7587C17.3612 10.8187 16.105 11.2212 16.105 11.2212C15.2987 13.2875 15.805 14.8125 15.9737 15.1912C15.0112 16.2412 14.43 17.5787 14.43 19.2162C14.43 24.9638 17.9313 26.2537 21.2625 26.6287C20.8337 27.0037 20.4475 27.665 20.3125 28.635C19.455 29.0187 17.2812 29.6812 15.9437 27.3875C15.9437 27.3875 15.1525 25.9475 13.6462 25.8425C13.6462 25.8425 12.1825 25.8237 13.5413 26.7537C13.5413 26.7537 14.5275 27.2162 15.21 28.9475C15.21 28.9475 16.09 31.865 20.2625 30.96C20.266 31.6541 20.2714 32.2538 20.2755 32.7109C20.2788 33.077 20.2812 33.3516 20.2812 33.51C20.2812 33.9087 20.0063 34.3725 19.2562 34.2312C13.2975 32.25 9 26.6287 9 20Z" fill="white"/>
</g>
<defs>
<filter id="filter0_d_22_17" x="0" y="0" width="48" height="48" filterUnits="userSpaceOnUse" color-interpolation-filters="sRGB">
<feFlood flood-opacity="0" result="BackgroundImageFix"/>
<feColorMatrix in="SourceAlpha" type="matrix" values="0 0 0 0 0 0 0 0 0 0 0 0 0 0 0 0 0 0 127 0" result="hardAlpha"/>
<feOffset dy="4"/>
<feGaussianBlur stdDeviation="2"/>
<feComposite in2="hardAlpha" operator="out"/>
<feColorMatrix type="matrix" values="0 0 0 0 0 0 0 0 0 0 0 0 0 0 0 0 0 0 0.25 0"/>
<feBlend mode="normal" in2="BackgroundImageFix" result="effect1_dropShadow_22_17"/>
<feBlend mode="normal" in="SourceGraphic" in2="effect1_dropShadow_22_17" result="shape"/>
</filter>
<clipPath id="clip0_22_17">
<rect width="40" height="40" fill="white" transform="translate(4)"/>
</clipPath>
</defs>
</svg>
