<svg width="48" height="48" viewBox="0 0 48 48" fill="none" xmlns="http://www.w3.org/2000/svg">
<g clip-path="url(#clip0_22_19)" filter="url(#filter0_d_22_19)">
<path fill-rule="evenodd" clip-rule="evenodd" d="M5.08993 5.46009C4 7.59921 4 10.3995 4 16V24C4 29.6005 4 32.4008 5.08993 34.5399C6.04867 36.4215 7.57847 37.9513 9.46009 38.9101C11.5992 40 14.3995 40 20 40H28C33.6005 40 36.4008 40 38.5399 38.9101C40.4215 37.9513 41.9513 36.4215 42.9101 34.5399C44 32.4008 44 29.6005 44 24V16C44 10.3995 44 7.59921 42.9101 5.46009C41.9513 3.57847 40.4215 2.04867 38.5399 1.08993C36.4008 0 33.6005 0 28 0H20C14.3995 0 11.5992 0 9.46009 1.08993C7.57847 2.04867 6.04867 3.57847 5.08993 5.46009ZM24.2682 11.9439C26.2075 11.9145 28.0817 12.6298 29.4861 13.9427L33.3695 10.1361C30.9105 7.87274 27.6469 6.62837 24.2682 6.66757C19.1253 6.66757 14.4225 9.50924 12.1135 14.0164C10.1845 17.7835 10.1844 22.2224 12.1132 25.9896C14.4223 30.4919 19.1253 33.3333 24.2683 33.3333C27.9368 33.3333 31.0305 32.1527 33.2846 30.1146L33.2821 30.1127C35.8547 27.7906 37.3333 24.362 37.3333 20.3067C37.3333 19.4004 37.2583 18.4891 37.0984 17.5975H24.2686V22.7317H31.6156C31.3107 24.3876 30.3311 25.8525 28.8967 26.7833V26.7864C27.6778 27.5977 26.1052 28.057 24.2732 28.057C20.7247 28.057 17.7159 25.7104 16.6364 22.5553L16.6317 22.5553C16.062 20.8994 16.062 19.1052 16.6317 17.4494C17.7066 14.29 20.7201 11.9439 24.2682 11.9439Z" fill="white"/>
</g>
<defs>
<filter id="filter0_d_22_19" x="0" y="0" width="48" height="48" filterUnits="userSpaceOnUse" color-interpolation-filters="sRGB">
<feFlood flood-opacity="0" result="BackgroundImageFix"/>
<feColorMatrix in="SourceAlpha" type="matrix" values="0 0 0 0 0 0 0 0 0 0 0 0 0 0 0 0 0 0 127 0" result="hardAlpha"/>
<feOffset dy="4"/>
<feGaussianBlur stdDeviation="2"/>
<feComposite in2="hardAlpha" operator="out"/>
<feColorMatrix type="matrix" values="0 0 0 0 0 0 0 0 0 0 0 0 0 0 0 0 0 0 0.25 0"/>
<feBlend mode="normal" in2="BackgroundImageFix" result="effect1_dropShadow_22_19"/>
<feBlend mode="normal" in="SourceGraphic" in2="effect1_dropShadow_22_19" result="shape"/>
</filter>
<clipPath id="clip0_22_19">
<rect width="40" height="40" fill="white" transform="translate(4)"/>
</clipPath>
</defs>
</svg>
